<svg id="Layer_1" enable-background="new 0 0 512 512" height="512" viewBox="0 0 512 512" width="512" xmlns="http://www.w3.org/2000/svg"><g><g><g fill="#f5f0dc"><path d="m139.609 114.26h-13v-13c0-4.142-3.357-7.5-7.5-7.5s-7.5 3.358-7.5 7.5v13h-13c-4.143 0-7.5 3.358-7.5 7.5s3.357 7.5 7.5 7.5h13v13c0 4.142 3.357 7.5 7.5 7.5s7.5-3.358 7.5-7.5v-13h13c4.143 0 7.5-3.358 7.5-7.5s-3.357-7.5-7.5-7.5z"/><path d="m69.685 24.25h-13v-13c0-4.142-3.357-7.5-7.5-7.5s-7.5 3.358-7.5 7.5v13h-13c-4.143 0-7.5 3.358-7.5 7.5s3.357 7.5 7.5 7.5h13v13c0 4.142 3.357 7.5 7.5 7.5s7.5-3.358 7.5-7.5v-13h13c4.143 0 7.5-3.358 7.5-7.5s-3.358-7.5-7.5-7.5z"/><path d="m48.5 187.872h-13v-13c0-4.142-3.357-7.5-7.5-7.5s-7.5 3.358-7.5 7.5v13h-13c-4.143 0-7.5 3.358-7.5 7.5s3.357 7.5 7.5 7.5h13v13c0 4.142 3.357 7.5 7.5 7.5s7.5-3.358 7.5-7.5v-13h13c4.143 0 7.5-3.358 7.5-7.5s-3.357-7.5-7.5-7.5z"/></g><g fill="#f5f0dc"><path d="m413.391 114.26h-13v-13c0-4.142-3.357-7.5-7.5-7.5s-7.5 3.358-7.5 7.5v13h-13c-4.143 0-7.5 3.358-7.5 7.5s3.357 7.5 7.5 7.5h13v13c0 4.142 3.357 7.5 7.5 7.5s7.5-3.358 7.5-7.5v-13h13c4.143 0 7.5-3.358 7.5-7.5s-3.358-7.5-7.5-7.5z"/><path d="m462.815 59.75c4.143 0 7.5-3.358 7.5-7.5v-13h13c4.143 0 7.5-3.358 7.5-7.5s-3.357-7.5-7.5-7.5h-13v-13c0-4.142-3.357-7.5-7.5-7.5s-7.5 3.358-7.5 7.5v13h-13c-4.143 0-7.5 3.358-7.5 7.5s3.357 7.5 7.5 7.5h13v13c0 4.142 3.358 7.5 7.5 7.5z"/><path d="m504.5 187.872h-13v-13c0-4.142-3.357-7.5-7.5-7.5s-7.5 3.358-7.5 7.5v13h-13c-4.143 0-7.5 3.358-7.5 7.5s3.357 7.5 7.5 7.5h13v13c0 4.142 3.357 7.5 7.5 7.5s7.5-3.358 7.5-7.5v-13h13c4.143 0 7.5-3.358 7.5-7.5s-3.357-7.5-7.5-7.5z"/></g><g><g><path d="m7.5 508.25h497v-17.5c0-9.665-7.835-17.5-17.5-17.5h-462c-9.665 0-17.5 7.835-17.5 17.5z" fill="#688ea6"/><path d="m487 473.25h-40c9.665 0 17.5 7.835 17.5 17.5v17.5h40v-17.5c0-9.665-7.835-17.5-17.5-17.5z" fill="#5685a2"/><g><path d="m333.5 473.25h155v-161c0-11.046-8.954-20-20-20h-135z" fill="#ff9d00"/><path d="m468.5 292.25h-40c11.046 0 20 8.954 20 20v161h40v-161c0-11.046-8.954-20-20-20z" fill="#f78c00"/><path d="m178.5 473.25h155v-242.19c0-11.046-8.954-20-20-20h-115c-11.046 0-20 8.954-20 20z" fill="#ffee03"/><path d="m313.5 211.06h-40c11.046 0 20 8.955 20 20v242.19h40v-242.19c0-11.045-8.954-20-20-20z" fill="#ffe203"/><path d="m23.5 473.25h155v-214.129h-135c-11.046 0-20 8.954-20 20z" fill="#ff9d00"/><path d="m138.5 259.121h40v214.129h-40z" fill="#f78c00"/></g><g fill="#fff"><g><path d="m258.046 252.25h-14.092c-4.143 0-7.5 3.358-7.5 7.5s3.357 7.5 7.5 7.5h6.592v58.429c0 4.142 3.357 7.5 7.5 7.5s7.5-3.358 7.5-7.5v-65.929c0-4.142-3.358-7.5-7.5-7.5z"/><path d="m119.022 360.909c-6.41.075-13.154.126-19.01.144 1.747-1.993 3.578-4.149 5.415-6.414 12.372-15.257 18.387-27.173 18.387-36.428 0-13.438-10.933-24.37-24.37-24.37-11.618 0-21.675 8.266-23.913 19.654-.799 4.064 1.849 8.007 5.913 8.806 4.065.796 8.007-1.849 8.806-5.913.859-4.373 4.726-7.546 9.194-7.546 5.167 0 9.37 4.204 9.37 9.37 0 10.03-18.21 32.18-31.141 44.705-1.882 1.823-2.677 4.497-2.096 7.052.582 2.555 2.454 4.622 4.939 5.451 1.003.334 1.966.656 15.735.656 5.41 0 12.799-.05 22.943-.167 4.143-.048 7.461-3.445 7.412-7.587-.045-4.142-3.428-7.485-7.584-7.413z"/><path d="m435.37 351.69c0-13.438-10.933-24.37-24.37-24.37-11.62 0-21.677 8.266-23.913 19.655-.798 4.064 1.85 8.006 5.914 8.805 4.069.797 8.007-1.85 8.805-5.914.858-4.372 4.726-7.545 9.194-7.545 5.167 0 9.37 4.203 9.37 9.37s-4.203 9.371-9.37 9.371c-4.143 0-7.5 3.358-7.5 7.5s3.357 7.5 7.5 7.5c5.167 0 9.37 4.203 9.37 9.37s-4.203 9.37-9.37 9.37c-4.649 0-8.639-3.462-9.279-8.055-.061-.432-.091-.874-.091-1.315 0-4.142-3.357-7.5-7.5-7.5s-7.5 3.358-7.5 7.5c0 1.133.079 2.274.235 3.389 1.668 11.961 12.044 20.981 24.135 20.981 13.438 0 24.37-10.933 24.37-24.37 0-6.541-2.591-12.488-6.799-16.87 4.209-4.383 6.799-10.33 6.799-16.872z"/></g><path d="m136.979 441.99h-71.958c-4.143 0-7.5-3.358-7.5-7.5s3.357-7.5 7.5-7.5h71.957c4.143 0 7.5 3.358 7.5 7.5s-3.357 7.5-7.499 7.5z"/><path d="m446.979 441.99h-71.957c-4.143 0-7.5-3.358-7.5-7.5s3.357-7.5 7.5-7.5h71.957c4.143 0 7.5 3.358 7.5 7.5s-3.358 7.5-7.5 7.5z"/><path d="m136.979 408.25h-71.958c-4.143 0-7.5-3.358-7.5-7.5s3.357-7.5 7.5-7.5h71.957c4.143 0 7.5 3.358 7.5 7.5s-3.357 7.5-7.499 7.5z"/><path d="m291.979 441.99h-71.957c-4.143 0-7.5-3.358-7.5-7.5s3.357-7.5 7.5-7.5h71.957c4.143 0 7.5 3.358 7.5 7.5s-3.358 7.5-7.5 7.5z"/><path d="m291.979 408.25h-71.957c-4.143 0-7.5-3.358-7.5-7.5s3.357-7.5 7.5-7.5h71.957c4.143 0 7.5 3.358 7.5 7.5s-3.358 7.5-7.5 7.5z"/><path d="m291.979 374.51h-71.957c-4.143 0-7.5-3.358-7.5-7.5s3.357-7.5 7.5-7.5h71.957c4.143 0 7.5 3.358 7.5 7.5s-3.358 7.5-7.5 7.5z"/></g></g><g><path d="m266.136 18.817 15.346 31.094c1.647 3.336 4.829 5.649 8.511 6.184l34.314 4.986c9.272 1.347 12.974 12.741 6.265 19.281l-24.83 24.203c-2.664 2.597-3.88 6.338-3.251 10.005l5.862 34.176c1.584 9.234-8.108 16.276-16.401 11.916l-30.692-16.135c-3.293-1.731-7.227-1.731-10.52 0l-30.692 16.135c-8.293 4.36-17.985-2.682-16.401-11.916l5.862-34.176c.629-3.667-.587-7.408-3.251-10.005l-24.83-24.203c-6.709-6.54-3.007-17.933 6.265-19.281l34.314-4.986c3.682-.535 6.864-2.847 8.511-6.184l15.346-31.094c4.146-8.402 16.126-8.402 20.272 0z" fill="#ffee03"/></g></g></g><g><path d="m324.307 61.08-34.314-4.986c-3.682-.535-6.865-2.848-8.511-6.184l-15.346-31.094c-2.073-4.201-6.105-6.301-10.136-6.301v130.711c1.807 0 3.614.433 5.26 1.298l30.692 16.135c8.292 4.36 17.985-2.682 16.401-11.916l-5.861-34.176c-.629-3.667.587-7.408 3.251-10.005l24.83-24.203c6.708-6.538 3.006-17.932-6.266-19.279z" fill="#ffe203"/></g></g></svg>